<?xml version="1.0" ?><svg viewBox="0 0 32 32" xmlns="http://www.w3.org/2000/svg"><title/><g data-name="spotify music podcast audio" id="spotify_music_podcast_audio"><path d="M16,3a13,13,0,0,0-5.45,24.81A1,1,0,1,0,11.39,26,11,11,0,1,1,16,27a1,1,0,0,0,0,2A13,13,0,0,0,16,3Z"/><path d="M23.1,14.57a1,1,0,0,0,.49.13,1,1,0,0,0,.49-1.87c-4-2.27-9.24-2.84-15.56-1.73a1,1,0,0,0-.81,1.16,1,1,0,0,0,1.16.81C14.72,12,19.5,12.54,23.1,14.57Z"/><path d="M9.66,17c4.88-1.08,8.86-.56,11.85,1.54a1,1,0,0,0,.58.19,1,1,0,0,0,.82-.43,1,1,0,0,0-.24-1.39c-3.47-2.45-8-3.07-13.44-1.87a1,1,0,0,0,.43,2Z"/><path d="M10.52,20.79c3.8-.77,6.89-.4,9.2,1.09a1,1,0,0,0,.54.16,1,1,0,0,0,.54-1.84C18,18.41,14.45,18,10.13,18.83a1,1,0,1,0,.39,2Z"/></g></svg>