<?xml version="1.0" ?><svg enable-background="new 0 0 224 224" id="spotify" version="1.1" viewBox="0 0 224 224" xml:space="preserve" xmlns="http://www.w3.org/2000/svg" xmlns:xlink="http://www.w3.org/1999/xlink"><g><path d="M112,0C50.2422,0,0,50.2422,0,112s50.2422,112,112,112s112-50.2422,112-112S173.7578,0,112,0z" fill="#314E55"/><path d="M112,216C54.6543,216,8,169.3477,8,112S54.6543,8,112,8s104,46.6523,104,104S169.3457,216,112,216z" fill="#5ECB66"/><path d="M189.5898,78.3984c-8.1875-4.8672-16.9492-8.9883-26.041-12.2422   C131.8066,54.7969,96.7266,53.293,59.2891,61.6797c-10.5898,2.3672-16.8477,4.5312-19.0469,5.3477   c-6.5371,2.4336-9.877,9.7344-7.4453,16.2734c2.4336,6.5391,9.7305,9.8867,16.2695,7.4492l0.0078-0.0039   c0.6211-0.2305,1.9434-0.6797,3.8926-1.2734c3.6973-1.125,7.6836-2.168,11.8477-3.1016c32.248-7.2148,63.4375-5.9609,90.207,3.6133   c7.5605,2.707,14.8398,6.125,21.6348,10.1641c2.0215,1.2031,4.2461,1.7734,6.4434,1.7734c4.3203,0,8.5371-2.207,10.9004-6.1836   C197.5625,89.7422,195.584,81.9609,189.5898,78.3984z" fill="#314E55"/><path d="M187.123,91.6523c-1.3125,2.2031-4.1738,2.9258-6.3809,1.6211   c-7.2344-4.3008-14.9805-7.9414-23.0254-10.8203c-16.1895-5.793-33.8672-8.7031-52.375-8.7031   c-13.7285,0-27.9141,1.6015-42.2754,4.8164c-4.3594,0.9766-8.5391,2.0703-12.4297,3.2539   c-2.1816,0.6641-3.6582,1.168-4.3555,1.4297c-2.4004,0.8984-5.0938-0.336-5.9863-2.7383c-0.8945-2.4062,0.334-5.0898,2.7402-5.9844   c2.0449-0.7617,7.8926-2.7812,18-5.043c35.9434-8.0508,69.5293-6.6328,99.8184,4.2031c8.6074,3.082,16.9004,6.9805,24.6484,11.5859   C187.7051,86.5859,188.4316,89.4453,187.123,91.6523z" fill="#FFFFFF"/><path d="M175.9902,108.7969C134.8477,91.1602,96.1016,86.625,63.957,95.6641   c-7.25,2.0391-11.3887,3.9961-13.2129,4.9844c-6.1328,3.3203-8.4199,11.0156-5.0996,17.1523   c3.3262,6.1367,11.0117,8.418,17.1523,5.1016c0.1973-0.1016,0.6973-0.332,1.502-0.6641c1.8984-0.7852,4.0898-1.5312,6.5098-2.2109   c26.5195-7.4609,59.4473-3.2969,95.2129,12.0312c1.6016,0.6875,3.291,1.0312,4.9824,1.0312c1.5898,0,3.1816-0.3047,4.7031-0.9141   c3.1367-1.2539,5.5996-3.6562,6.9297-6.7656C185.3848,118.9961,182.4023,111.543,175.9902,108.7969z" fill="#314E55"/><path d="M175.2852,122.2617c-0.4902,1.1406-1.3965,2.0273-2.5508,2.4883c-1.1543,0.4609-2.4219,0.4414-3.5605-0.043   c-25.2109-10.8047-49.1953-16.2812-70.8125-16.2812c-10.5098,0-20.4609,1.2969-29.7207,3.8984   c-2.7227,0.7656-5.2148,1.6172-7.3965,2.5195c-1.2656,0.5234-2.0195,0.8945-2.2598,1.0234   c-1.0938,0.5938-2.3555,0.7227-3.5371,0.3672c-1.1934-0.3555-2.1758-1.1523-2.7676-2.2422   c-1.2207-2.2578-0.3789-5.0898,1.873-6.3086c1.2324-0.668,4.8223-2.4219,11.5703-4.3164   c30.3652-8.543,67.2695-4.125,106.7148,12.7812C175.1973,117.1602,176.2949,119.9023,175.2852,122.2617z" fill="#FFFFFF"/><path d="M163.4375,140.5938c-28.5938-16.332-61.457-20.9023-95.0312-13.1914   c-5.0117,1.1523-9.6777,2.5195-12.7988,3.75c-3.1465,1.2344-5.623,3.6211-6.9727,6.7188   c-1.3516,3.1016-1.4141,6.5391-0.1777,9.6836c2.5508,6.4922,9.9043,9.7031,16.4023,7.1523l0.0254-0.0078   c0.291-0.1172,0.9941-0.3633,2.0801-0.707c2.1484-0.6836,4.541-1.332,7.1094-1.9219c27.2676-6.2656,53.832-2.6328,76.8066,10.5   c1.9746,1.1289,4.127,1.6641,6.252,1.6641c4.3965,0,8.6777-2.293,11.0137-6.375   C171.6094,151.8008,169.4961,144.0547,163.4375,140.5938z" fill="#314E55"/><path d="M161.2012,153.8906c-1.2754,2.2227-4.123,3.0078-6.3516,1.7344   c-16.8887-9.6523-35.5469-14.5469-54.9922-14.5469c-9.0547,0-18.2793,1.0586-27.5762,3.1953   c-2.7812,0.6406-5.3867,1.3438-7.7344,2.0938c-1.3555,0.4258-2.2402,0.7461-2.6211,0.8984   c-2.3848,0.9258-5.0859-0.2539-6.0234-2.6328c-0.4551-1.1602-0.4316-2.4258,0.0645-3.5625   c0.498-1.1406,1.4082-2.0195,2.5664-2.4727c1.3125-0.5156,5.0742-1.8828,11.6641-3.3984   c31.5742-7.2539,62.4453-2.9844,89.2715,12.3398c1.0781,0.6172,1.8535,1.6172,2.1797,2.8164   C161.9766,151.5586,161.8184,152.8125,161.2012,153.8906z" fill="#FFFFFF"/></g></svg>